# Blender 4.0.2
# www.blender.org
mtllib CompassNeedle.mtl
o Plane
v -0.025000 -0.010000 0.000000
v 0.000000 -0.010000 0.050000
v -0.000000 -0.010000 -0.050000
v 0.025000 -0.010000 -0.000000
v -0.025000 0.010000 0.000000
v 0.000000 0.010000 0.050000
v -0.000000 0.010000 -0.050000
v 0.025000 0.010000 -0.000000
vn -0.0000 -1.0000 -0.0000
vn -0.0000 1.0000 -0.0000
vn -0.8944 -0.0000 -0.4472
vn 0.8944 -0.0000 -0.4472
vn -0.8944 -0.0000 0.4472
vn 0.8944 -0.0000 0.4472
vt 0.000000 0.000000
vt 1.000000 1.000000
vt 1.000000 0.000000
vt 0.000000 1.000000
s 0
f 1/1/1 4/2/1 2/3/1
f 5/1/2 8/2/2 7/4/2
f 1/1/3 7/4/3 3/4/3
f 3/4/4 8/2/4 4/2/4
f 2/3/5 5/1/5 1/1/5
f 4/2/6 6/3/6 2/3/6
f 1/1/1 3/4/1 4/2/1
f 5/1/2 6/3/2 8/2/2
f 1/1/3 5/1/3 7/4/3
f 3/4/4 7/4/4 8/2/4
f 2/3/5 6/3/5 5/1/5
f 4/2/6 8/2/6 6/3/6
